<svg width="0" height="0" class="hidden">
  <symbol fill="none" xmlns="http://www.w3.org/2000/svg" viewBox="0 0 20 20" id="add-vector">
    <path d="M10 0C8.02219 0 6.08879 0.58649 4.4443 1.6853C2.79981 2.78412 1.51809 4.3459 0.761209 6.17317C0.00433286 8.00043 -0.193701 10.0111 0.192152 11.9509C0.578004 13.8907 1.53041 15.6725 2.92894 17.0711C4.32746 18.4696 6.10929 19.422 8.0491 19.8079C9.98891 20.1937 11.9996 19.9957 13.8268 19.2388C15.6541 18.4819 17.2159 17.2002 18.3147 15.5557C19.4135 13.9112 20 11.9778 20 10C19.9971 7.34872 18.9426 4.80684 17.0679 2.9321C15.1932 1.05736 12.6513 0.00286757 10 0V0ZM14.1667 10.8333H10.8333V14.1667H9.16667V10.8333H5.83334V9.16667H9.16667V5.83333H10.8333V9.16667H14.1667V10.8333Z" fill="#6172F3" ></path>
  </symbol>
  <symbol fill="none" xmlns="http://www.w3.org/2000/svg" viewBox="0 0 24 24" id="catalog">
    <g clip-path="url(#clip0_80_132)">
      <path d="M7 12H17V14H7V12ZM7 18H14V16H7V18ZM22 7.586V24H2V3C2 2.20435 2.31607 1.44129 2.87868 0.87868C3.44129 0.31607 4.20435 0 5 0L14.414 0L22 7.586ZM15 7H18.586L15 3.414V7ZM20 22V9H13V2H5C4.73478 2 4.48043 2.10536 4.29289 2.29289C4.10536 2.48043 4 2.73478 4 3V22H20Z" fill="var(--svg-color)" 
      ></path>
    </g>
    <defs>
      <clipPath id="clip0_80_132">
        <rect width="24" height="24" fill="white"></rect>
      </clipPath>
    </defs>
  </symbol>  
 <symbol enable-background="new 0 0 50 50" height="50px" id="cross-icon" version="1.1" viewBox="0 0 50 50" width="50px" xml:space="preserve" xmlns="http://www.w3.org/2000/svg" xmlns:xlink="http://www.w3.org/1999/xlink"><rect fill="none" height="50" width="50"/><line fill="none" stroke="#000000" stroke-miterlimit="10" stroke-width="4" x1="9" x2="41" y1="25" y2="25"/><line fill="none" stroke="#000000" stroke-miterlimit="10" stroke-width="4" x1="25" x2="25" y1="9" y2="41"/></symbol>
  <symbol fill="none" xmlns="http://www.w3.org/2000/svg" viewBox="0 0 24 24" id="chart-pie">
    <g clip-path="url(#clip0_80_135)">
      <path d="M12 0C9.62663 0 7.30655 0.703788 5.33316 2.02236C3.35977 3.34094 1.8217 5.21509 0.913451 7.4078C0.00519943 9.60051 -0.232441 12.0133 0.230582 14.3411C0.693605 16.6689 1.83649 18.8071 3.51472 20.4853C5.19295 22.1635 7.33115 23.3064 9.65892 23.7694C11.9867 24.2324 14.3995 23.9948 16.5922 23.0866C18.7849 22.1783 20.6591 20.6402 21.9776 18.6668C23.2962 16.6935 24 14.3734 24 12C24 8.8174 22.7357 5.76516 20.4853 3.51472C18.2348 1.26428 15.1826 0 12 0V0ZM21.949 11H13V2.051C15.2938 2.28456 17.4368 3.30244 19.0672 4.93281C20.6976 6.56318 21.7154 8.70617 21.949 11ZM2.00001 12C2.00313 9.52195 2.92504 7.13308 4.58745 5.29538C6.24986 3.45768 8.53466 2.3017 11 2.051V12.414L18.324 19.738C16.8598 20.9374 15.0851 21.6963 13.2064 21.9264C11.3277 22.1564 9.42234 21.8481 7.71204 21.0374C6.00174 20.2267 4.55688 18.9469 3.54565 17.3469C2.53441 15.747 1.9984 13.8927 2.00001 12ZM19.738 18.324L14.414 13H21.949C21.754 14.9541 20.9846 16.8066 19.738 18.324Z" fill="var(--svg-color)"></path>
    </g>
    <defs>
      <clipPath id="clip0_80_135">
        <rect width="24" height="24" fill="white"></rect>
      </clipPath>
    </defs>
  </symbol>
  <symbol fill="none" xmlns="http://www.w3.org/2000/svg" viewBox="0 0 24 25" id="companies">
    <g clip-path="url(#clip0_80_139)">
      <path d="M4 13.5H7V15.5H4V13.5ZM9 15.5H12V13.5H9V15.5ZM4 19.5H7V17.5H4V19.5ZM9 19.5H12V17.5H9V19.5ZM4 7.5H7V5.5H4V7.5ZM9 7.5H12V5.5H9V7.5ZM4 11.5H7V9.5H4V11.5ZM9 11.5H12V9.5H9V11.5ZM24 8.5V24.5H0V3.5C0 2.70435 0.31607 1.94129 0.87868 1.37868C1.44129 0.81607 2.20435 0.5 3 0.5L13 0.5C13.7956 0.5 14.5587 0.81607 15.1213 1.37868C15.6839 1.94129 16 2.70435 16 3.5V5.5H21C21.7956 5.5 22.5587 5.81607 23.1213 6.37868C23.6839 6.94129 24 7.70435 24 8.5ZM14 3.5C14 3.23478 13.8946 2.98043 13.7071 2.79289C13.5196 2.60536 13.2652 2.5 13 2.5H3C2.73478 2.5 2.48043 2.60536 2.29289 2.79289C2.10536 2.98043 2 3.23478 2 3.5V22.5H14V3.5ZM22 8.5C22 8.23478 21.8946 7.98043 21.7071 7.79289C21.5196 7.60536 21.2652 7.5 21 7.5H16V22.5H22V8.5ZM18 15.5H20V13.5H18V15.5ZM18 19.5H20V17.5H18V19.5ZM18 11.5H20V9.5H18V11.5Z" fill="var(--svg-color)"></path>
    </g>
    <defs>
      <clipPath id="clip0_80_139">
        <rect width="24" height="24" fill="white" transform="translate(0 0.5)"></rect>
      </clipPath>
    </defs>
  </symbol>
  <symbol fill="none" xmlns="http://www.w3.org/2000/svg" viewBox="0 0 84 83" id="companies-empty">
    <path d="M34.7734 5.25781C21.8242 8.26562 10.2422 10.9414 9.01172 11.2344C7.09766 11.6641 6.6875 11.8398 6.00391 12.4648C5.57422 12.8555 5.06641 13.5195 4.87109 13.9492C4.51953 14.6914 4.5 16.1953 4.5 46.6055V78.5H3.21094C1.23828 78.5 0.398438 79.1836 0.398438 80.7656C0.398438 81.2734 0.554688 81.625 0.964844 82.0352L1.53125 82.6016H13.4648H25.3984V75.8633C25.3984 68.4023 25.3984 68.3633 26.707 67.1328C27.8203 66.0781 28.2891 66 33.5234 66C39.0117 66 39.5586 66.0977 40.7305 67.2695C41.9414 68.4805 42 68.832 42 76.1367V82.6016H52.4492H62.8984V43.2266C62.8984 15.1602 62.8398 3.61719 62.6836 3.01172C62.4297 1.99609 61.4141 0.746094 60.5156 0.316406C59.0117 -0.367188 59.4609 -0.464844 34.7734 5.25781ZM24.4023 24.7109C25.1641 25.2578 25.3984 26.1367 25.3984 28.5C25.3984 32.3086 25.0859 32.6016 21.2578 32.6016C17.1758 32.6016 17 32.4453 17 28.5C17 25.7461 17.1953 25.043 18.0547 24.6133C18.2891 24.5156 19.6953 24.418 21.1992 24.418C23.4453 24.3984 24.0312 24.457 24.4023 24.7109ZM36.9023 24.7109C37.6641 25.2578 37.8984 26.1367 37.8984 28.5C37.8984 32.3086 37.5859 32.6016 33.7578 32.6016C29.6758 32.6016 29.5 32.4453 29.5 28.5C29.5 25.7461 29.6953 25.043 30.5547 24.6133C30.7891 24.5156 32.1953 24.418 33.6992 24.418C35.9453 24.3984 36.5312 24.457 36.9023 24.7109ZM49.4023 24.7109C50.1641 25.2578 50.3984 26.1367 50.3984 28.5C50.3984 32.3086 50.0859 32.6016 46.2578 32.6016C42.1758 32.6016 42 32.4453 42 28.5C42 25.7461 42.1953 25.043 43.0547 24.6133C43.2891 24.5156 44.6953 24.418 46.1992 24.418C48.4453 24.3984 49.0312 24.457 49.4023 24.7109ZM24.4023 37.2109C25.1641 37.7578 25.3984 38.6367 25.3984 41C25.3984 44.8086 25.0859 45.1016 21.2578 45.1016C17.1758 45.1016 17 44.9453 17 41C17 38.2461 17.1953 37.543 18.0547 37.1133C18.2891 37.0156 19.6953 36.918 21.1992 36.918C23.4453 36.8984 24.0312 36.957 24.4023 37.2109ZM36.9023 37.2109C37.6641 37.7578 37.8984 38.6367 37.8984 41C37.8984 44.8086 37.5859 45.1016 33.7578 45.1016C29.6758 45.1016 29.5 44.9453 29.5 41C29.5 38.2461 29.6953 37.543 30.5547 37.1133C30.7891 37.0156 32.1953 36.918 33.6992 36.918C35.9453 36.8984 36.5312 36.957 36.9023 37.2109ZM49.4023 37.2109C50.1641 37.7578 50.3984 38.6367 50.3984 41C50.3984 44.8086 50.0859 45.1016 46.2578 45.1016C42.1758 45.1016 42 44.9453 42 41C42 38.2461 42.1953 37.543 43.0547 37.1133C43.2891 37.0156 44.6953 36.918 46.1992 36.918C48.4453 36.8984 49.0312 36.957 49.4023 37.2109ZM24.4023 49.7109C25.1641 50.2578 25.3984 51.1367 25.3984 53.5C25.3984 57.3086 25.0859 57.6016 21.2578 57.6016C17.1758 57.6016 17 57.4453 17 53.5C17 50.7461 17.1953 50.043 18.0547 49.6133C18.2891 49.5156 19.6953 49.418 21.1992 49.418C23.4453 49.3984 24.0312 49.457 24.4023 49.7109ZM36.9023 49.7109C37.6641 50.2578 37.8984 51.1367 37.8984 53.5C37.8984 57.3086 37.5859 57.6016 33.7578 57.6016C29.6758 57.6016 29.5 57.4453 29.5 53.5C29.5 50.7461 29.6953 50.043 30.5547 49.6133C30.7891 49.5156 32.1953 49.418 33.6992 49.418C35.9453 49.3984 36.5312 49.457 36.9023 49.7109ZM49.4023 49.7109C50.1641 50.2578 50.3984 51.1367 50.3984 53.5C50.3984 57.3086 50.0859 57.6016 46.2578 57.6016C42.1758 57.6016 42 57.4453 42 53.5C42 50.7461 42.1953 50.043 43.0547 49.6133C43.2891 49.5156 44.6953 49.418 46.1992 49.418C48.4453 49.3984 49.0312 49.457 49.4023 49.7109Z" fill="#D8DCFC"></path>
    <path d="M67 48.7148V82.6016H74.7344H82.4688L83.0352 82.0352C83.6797 81.3906 83.7969 80.4141 83.3281 79.4961C82.9375 78.7734 82.2539 78.5 80.7695 78.5H79.5L79.4609 50.4141L79.4023 22.3086L78.8164 21.3516C78.2305 20.4141 78.1328 20.3359 72.7617 17.6211C69.7539 16.0977 67.2344 14.8477 67.1562 14.8281C67.0586 14.8281 67 30.082 67 48.7148Z" fill="#D8DCFC"></path>
    <path d="M29.5 76.3516V82.6016H33.6992H37.8984L37.8594 76.3906L37.8008 70.1992L33.6602 70.1406L29.5 70.1016V76.3516Z" fill="#D8DCFC"></path>
  </symbol>
  <symbol fill="none" xmlns="http://www.w3.org/2000/svg" viewBox="0 0 20 20" id="download">
    <g clip-path="url(#clip0_155_1769)">
      <path d="M18.3333 13.333V17.4997C18.3333 17.7207 18.2455 17.9326 18.0893 18.0889C17.933 18.2452 17.721 18.333 17.5 18.333H2.5C2.27899 18.333 2.06702 18.2452 1.91074 18.0889C1.75446 17.9326 1.66667 17.7207 1.66667 17.4997V13.333H0V17.4997C0 18.1627 0.263392 18.7986 0.732233 19.2674C1.20107 19.7363 1.83696 19.9997 2.5 19.9997H17.5C18.163 19.9997 18.7989 19.7363 19.2678 19.2674C19.7366 18.7986 20 18.1627 20 17.4997V13.333H18.3333Z" fill="#6172F3"></path>
      <path d="M10.0274 16C10.3555 16.0009 10.6807 15.937 10.9841 15.812C11.2875 15.6871 11.5633 15.5034 11.7957 15.2717L15.0615 12.0058L13.8832 10.8275L10.8549 13.855L10.8332 0.166656H9.16652L9.18819 13.8433L6.17236 10.8275L4.99402 12.0058L8.25986 15.2717C8.49205 15.5034 8.7677 15.687 9.07101 15.812C9.37431 15.937 9.69931 16.0009 10.0274 16Z" fill="#6172F3"></path>
    </g>
    <defs>
      <clipPath id="clip0_155_1769">
        <rect width="20" height="20" fill="white"></rect>
      </clipPath>
    </defs>
  </symbol>  
  <symbol fill="none" xmlns="http://www.w3.org/2000/svg" viewBox="0 0 20 20" id="dropdown">
    <g clip-path="url(#clip0_80_148)">
      <path d="M18.8216 4.9408L10.5891 13.1733C10.4306 13.3254 10.2195 13.4103 9.99988 13.4103C9.78027 13.4103 9.56916 13.3254 9.41072 13.1733L1.18322 4.94496L0.00488281 6.1233L8.23238 14.3516C8.70893 14.8058 9.34199 15.0592 10.0003 15.0592C10.6586 15.0592 11.2917 14.8058 11.7682 14.3516L19.9999 6.11913L18.8216 4.9408Z" fill="#83A19B"></path>
    </g>
    <defs>
      <clipPath id="clip0_80_148">
        <rect width="20" height="20" fill="white"></rect>
      </clipPath>
    </defs>
  </symbol> 
  <symbol fill="none" xmlns="http://www.w3.org/2000/svg" viewBox="0 0 24 24" id="employees">
    <g clip-path="url(#clip0_80_129)">
      <path d="M20 0H3V3H1V5H3V7H1V9H3V11H1V13H3V15H1V17H3V19H1V21H3V24H20C20.7956 24 21.5587 23.6839 22.1213 23.1213C22.6839 22.5587 23 21.7956 23 21V3C23 2.20435 22.6839 1.44129 22.1213 0.87868C21.5587 0.31607 20.7956 0 20 0V0ZM21 21C21 21.2652 20.8946 21.5196 20.7071 21.7071C20.5196 21.8946 20.2652 22 20 22H5V2H20C20.2652 2 20.5196 2.10536 20.7071 2.29289C20.8946 2.48043 21 2.73478 21 3V21ZM13 12C13.5933 12 14.1734 11.8241 14.6667 11.4944C15.1601 11.1648 15.5446 10.6962 15.7716 10.1481C15.9987 9.59987 16.0581 8.99667 15.9424 8.41473C15.8266 7.83279 15.5409 7.29824 15.1213 6.87868C14.7018 6.45912 14.1672 6.1734 13.5853 6.05764C13.0033 5.94189 12.4001 6.0013 11.8519 6.22836C11.3038 6.45542 10.8352 6.83994 10.5056 7.33329C10.1759 7.82664 10 8.40666 10 9C10 9.79565 10.3161 10.5587 10.8787 11.1213C11.4413 11.6839 12.2044 12 13 12ZM18 16V18H16V16C16 15.7348 15.8946 15.4804 15.7071 15.2929C15.5196 15.1054 15.2652 15 15 15H11C10.7348 15 10.4804 15.1054 10.2929 15.2929C10.1054 15.4804 10 15.7348 10 16V18H8V16C8 15.2044 8.31607 14.4413 8.87868 13.8787C9.44129 13.3161 10.2044 13 11 13H15C15.7956 13 16.5587 13.3161 17.1213 13.8787C17.6839 14.4413 18 15.2044 18 16Z" fill="var(--svg-color)"></path>
    </g>
    <defs>
      <clipPath id="clip0_80_129">
        <rect width="24" height="24" fill="white"></rect>
      </clipPath>
    </defs>
  </symbol>    
  <symbol fill="none" xmlns="http://www.w3.org/2000/svg" viewBox="0 0 24 24" id="briefcase">
    <g clip-path="url(#clip0_275_2170)">
      <path d="M21 4H18V2C18 1.46957 17.7893 0.960859 17.4142 0.585786C17.0391 0.210714 16.5304 0 16 0L8 0C7.46957 0 6.96086 0.210714 6.58579 0.585786C6.21071 0.960859 6 1.46957 6 2V4H3C2.20435 4 1.44129 4.31607 0.87868 4.87868C0.31607 5.44129 0 6.20435 0 7L0 24H24V7C24 6.20435 23.6839 5.44129 23.1213 4.87868C22.5587 4.31607 21.7956 4 21 4ZM8 2H16V4H8V2ZM3 6H21C21.2652 6 21.5196 6.10536 21.7071 6.29289C21.8946 6.48043 22 6.73478 22 7V12H2V7C2 6.73478 2.10536 6.48043 2.29289 6.29289C2.48043 6.10536 2.73478 6 3 6ZM2 22V14H11V16H13V14H22V22H2Z" fill="var(--svg-color)"></path>
    </g>
    <defs>
      <clipPath id="clip0_275_2170">
        <rect width="24" height="24" fill="white"></rect>
      </clipPath>
    </defs>
  </symbol>
  <symbol fill="none" xmlns="http://www.w3.org/2000/svg" viewBox="0 0 20 21" id="exit">
    <path d="M1.66667 18V3C1.66667 2.77899 1.75446 2.56702 1.91074 2.41074C2.06702 2.25446 2.27899 2.16667 2.5 2.16667H6.66667V0.5H2.5C1.83696 0.5 1.20107 0.763392 0.732233 1.23223C0.263392 1.70107 0 2.33696 0 3L0 18C0 18.663 0.263392 19.2989 0.732233 19.7678C1.20107 20.2366 1.83696 20.5 2.5 20.5H6.66667V18.8333H2.5C2.27899 18.8333 2.06702 18.7455 1.91074 18.5893C1.75446 18.433 1.66667 18.221 1.66667 18V18Z" fill="#EB4329"></path>
    <path d="M19.2689 8.732L15.4472 4.91033L14.2689 6.08866L17.8222 9.642L4.16638 9.66617V11.3328L17.8689 11.3087L14.2672 14.9103L15.4455 16.0887L19.2672 12.267C19.7361 11.7984 19.9997 11.1628 20 10.4998C20.0003 9.83693 19.7373 9.20104 19.2689 8.732Z" fill="#EB4329"></path>
  </symbol>  
  <symbol fill="var(--svg-color)" xmlns="http://www.w3.org/2000/svg" viewBox="0 0 20 21" id="eye">
    <g clip-path="url(#clip0_2372_408)">
      <path d="M19.8507 9.82763C19.1191 8.22763 16.2499 3.01013 9.99989 3.01013C3.74989 3.01013 0.880726 8.22763 0.149059 9.82763C0.0508413 10.0421 0 10.2751 0 10.511C0 10.7468 0.0508413 10.9799 0.149059 11.1943C0.880726 12.7926 3.74989 18.0101 9.99989 18.0101C16.2499 18.0101 19.1191 12.7926 19.8507 11.1926C19.9488 10.9785 19.9995 10.7457 19.9995 10.5101C19.9995 10.2746 19.9488 10.0418 19.8507 9.82763V9.82763ZM9.99989 16.3435C4.74406 16.3435 2.29156 11.8718 1.66656 10.5193C2.29156 9.14847 4.74406 4.6768 9.99989 4.6768C15.2432 4.6768 17.6966 9.1293 18.3332 10.5101C17.6966 11.891 15.2432 16.3435 9.99989 16.3435Z"></path>
      <path d="M9.99968 6.34375C9.17559 6.34375 8.37001 6.58812 7.6848 7.04596C6.9996 7.5038 6.46554 8.15454 6.15018 8.9159C5.83481 9.67726 5.7523 10.515 5.91307 11.3233C6.07384 12.1315 6.47068 12.874 7.0534 13.4567C7.63612 14.0394 8.37855 14.4363 9.1868 14.597C9.99505 14.7578 10.8328 14.6753 11.5942 14.3599C12.3555 14.0446 13.0063 13.5105 13.4641 12.8253C13.922 12.1401 14.1663 11.3345 14.1663 10.5104C14.165 9.40575 13.7256 8.34672 12.9445 7.5656C12.1634 6.78449 11.1043 6.34507 9.99968 6.34375V6.34375ZM9.99968 13.0104C9.50522 13.0104 9.02187 12.8638 8.61075 12.5891C8.19963 12.3144 7.8792 11.9239 7.68998 11.4671C7.50076 11.0103 7.45125 10.5076 7.54771 10.0227C7.64418 9.53774 7.88228 9.09228 8.23191 8.74265C8.58154 8.39302 9.027 8.15492 9.51195 8.05845C9.9969 7.96199 10.4996 8.0115 10.9564 8.20072C11.4132 8.38994 11.8036 8.71037 12.0784 9.12149C12.3531 9.53261 12.4997 10.016 12.4997 10.5104C12.4997 11.1735 12.2363 11.8093 11.7674 12.2782C11.2986 12.747 10.6627 13.0104 9.99968 13.0104Z"></path>
    </g>
    <defs>
      <clipPath id="clip0_2372_408">
        <rect width="20" height="20" fill="white" transform="translate(0 0.510132)"></rect>
      </clipPath>
    </defs>
  </symbol>
  <symbol fill="var(--svg-color)" xmlns="http://www.w3.org/2000/svg" viewBox="0 0 24 24" id="eye-crossed">
    <g clip-path="url(#clip0_116_599)">
      <path d="M23.8208 11.181C22.8547 9.08574 21.4396 7.22855 19.6758 5.74103L22.7078 2.70903L21.2928 1.29303L17.9998 4.58303C16.1772 3.52875 14.1053 2.98213 11.9998 3.00003C4.49981 3.00003 1.05681 9.26103 0.17881 11.181C0.0609485 11.4383 -6.10352e-05 11.718 -6.10352e-05 12.001C-6.10352e-05 12.284 0.0609485 12.5637 0.17881 12.821C1.14495 14.9163 2.56003 16.7735 4.32381 18.261L1.29281 21.293L2.70681 22.707L5.99981 19.417C7.82245 20.4713 9.8943 21.0179 11.9998 21C19.4998 21 22.9428 14.739 23.8208 12.819C23.9384 12.562 23.9993 12.2827 23.9993 12C23.9993 11.7174 23.9384 11.438 23.8208 11.181ZM1.99981 12.011C2.74981 10.366 5.69281 5.00003 11.9998 5.00003C13.5694 4.99085 15.1185 5.35703 16.5178 6.06803L14.7528 7.83303C13.7927 7.19563 12.6417 6.91003 11.495 7.02468C10.3484 7.13933 9.27668 7.64717 8.46181 8.46203C7.64695 9.2769 7.13911 10.3486 7.02446 11.4953C6.90981 12.6419 7.19541 13.793 7.83281 14.753L5.75381 16.832C4.15418 15.5294 2.87068 13.8811 1.99981 12.011ZM14.9998 12C14.9998 12.7957 14.6837 13.5587 14.1211 14.1214C13.5585 14.684 12.7955 15 11.9998 15C11.5543 14.9983 11.115 14.8957 10.7148 14.7L14.6998 10.715C14.8955 11.1152 14.9981 11.5545 14.9998 12ZM8.99981 12C8.99981 11.2044 9.31588 10.4413 9.87849 9.87871C10.4411 9.3161 11.2042 9.00003 11.9998 9.00003C12.4453 9.00175 12.8846 9.10432 13.2848 9.30003L9.29981 13.285C9.1041 12.8848 9.00154 12.4455 8.99981 12ZM11.9998 19C10.4302 19.0092 8.88117 18.643 7.48181 17.932L9.24681 16.167C10.2069 16.8044 11.3579 17.09 12.5046 16.9754C13.6513 16.8607 14.7229 16.3529 15.5378 15.538C16.3527 14.7232 16.8605 13.6515 16.9752 12.5048C17.0898 11.3581 16.8042 10.2071 16.1668 9.24703L18.2448 7.16903C19.8476 8.47284 21.1318 10.1251 21.9998 12C21.2358 13.657 18.2918 19 11.9998 19Z"></path>
    </g>
    <defs>
      <clipPath id="clip0_116_599">
        <rect width="24" height="24" fill="white"></rect>
      </clipPath>
    </defs>
  </symbol>
  <symbol fill="none" xmlns="http://www.w3.org/2000/svg" viewBox="0 0 110 32" id="logo">
    <path d="M0 31.4757V0.524292H5.71257V31.4757H0ZM2.90023 19.7142V14.364H12.4798C14.0031 14.364 15.1749 13.9955 15.9952 13.2586C16.8155 12.4922 17.2256 11.4457 17.2256 10.1192H23.1579C23.1579 13.0375 22.2497 15.3662 20.4334 17.1054C18.6464 18.8446 16.1856 19.7142 13.051 19.7142H2.90023ZM17.2256 10.1192C17.2256 8.79274 16.8155 7.76103 15.9952 7.02409C15.1749 6.25767 14.0031 5.87446 12.4798 5.87446H2.90023V0.524292H13.051C16.1856 0.524292 18.6464 1.39388 20.4334 3.13305C22.2497 4.87223 23.1579 7.20096 23.1579 10.1192H17.2256ZM16.7862 31.4757L10.019 18.0339L15.7755 16.619L23.1579 31.122V31.4757H16.7862Z" fill="#272E61"></path>
    <path d="M69.8077 31.4757C67.6861 31.4757 65.7766 31.1092 64.0793 30.3763C62.4102 29.6434 61.0099 28.6145 59.8784 27.2897C58.7751 25.9366 58.0396 24.3721 57.6719 22.5962L62.8911 21.2431L63.3579 21.3277C63.7539 22.3143 64.2773 23.1741 64.9279 23.907C65.5786 24.6399 66.3423 25.2037 67.2193 25.5983C68.0962 25.993 69.0439 26.1903 70.0623 26.1903C71.0524 26.1903 71.9152 26.0352 72.6507 25.7252C73.4145 25.4151 74.0086 24.9923 74.4329 24.4567C74.8855 23.8929 75.1118 23.2586 75.1118 22.5539C75.1118 21.7364 74.8289 21.0599 74.2632 20.5243C73.7257 19.9887 72.8487 19.5659 71.6323 19.2558L66.5404 17.945C63.9095 17.2685 61.901 16.155 60.5149 14.6046C59.1287 13.0543 58.4357 11.2502 58.4357 9.19238C58.4357 7.47286 58.8741 5.96475 59.7511 4.66806C60.628 3.37137 61.8445 2.35657 63.4003 1.62366C64.9845 0.890747 66.8091 0.524292 68.8742 0.524292C70.8544 0.524292 72.6224 0.862559 74.1783 1.53909C75.7625 2.21563 77.0637 3.18814 78.0821 4.45664C79.1288 5.69695 79.8219 7.19097 80.1614 8.93868L75.324 9.99576L74.8572 9.9112C74.5178 8.58632 73.8247 7.57152 72.778 6.86679C71.7313 6.16207 70.4159 5.80971 68.8317 5.80971C67.4739 5.80971 66.3848 6.13388 65.5644 6.78223C64.7723 7.43057 64.3763 8.21986 64.3763 9.1501C64.3763 9.99576 64.6733 10.7146 65.2674 11.3065C65.8897 11.8703 66.8091 12.3073 68.0255 12.6173L73.1175 13.9281C75.7483 14.6046 77.7285 15.6617 79.0581 17.0994C80.3877 18.5088 81.0524 20.2565 81.0524 22.3425C81.0524 24.1748 80.5857 25.7815 79.6522 27.1628C78.7186 28.5441 77.4032 29.6152 75.7059 30.3763C74.0369 31.1092 72.0708 31.4757 69.8077 31.4757Z" fill="#272E61"></path>
    <path d="M87.7163 25.6392V17.3707L102.203 0.524292H109.513V0.878023L87.7163 25.6392ZM84.6152 31.4757V0.524292H90.5959V31.4757H84.6152ZM103.177 31.4757L92.8553 16.1327L97.3297 12.2416L110 31.122V31.4757H103.177Z" fill="#272E61"></path>
    <path d="M55.3341 31.4757H48.988L38.0771 0.524292H44.4232L55.3341 31.4757Z" fill="#E4591E"></path>
    <path d="M25.6074 31.4757L35.2937 3.75304L38.6337 12.5486L36.2957 19.0061H40.9718L42.8645 24.5729H34.403L32.0649 31.4757H25.6074Z" fill="#E4591E"></path>
  </symbol>
  <symbol fill="none" xmlns="http://www.w3.org/2000/svg" viewBox="0 0 20 20" id="search">
    <g clip-path="url(#clip0_80_144)">
      <path d="M19.9998 18.8222L14.7815 13.6039C16.137 11.946 16.8035 9.83063 16.643 7.69518C16.4826 5.55974 15.5075 3.56766 13.9195 2.13098C12.3314 0.694309 10.252 -0.0770391 8.11119 -0.0235126C5.97039 0.030014 3.93207 0.90432 2.41783 2.41856C0.903588 3.9328 0.0292815 5.97113 -0.024245 8.11192C-0.0777715 10.2527 0.693577 12.3322 2.13025 13.9202C3.56693 15.5082 5.55901 16.4833 7.69445 16.6438C9.82989 16.8042 11.9453 16.1377 13.6032 14.7822L18.8215 20.0006L19.9998 18.8222ZM8.33315 15.0006C7.01461 15.0006 5.72568 14.6096 4.62935 13.877C3.53302 13.1445 2.67854 12.1033 2.17395 10.8851C1.66937 9.66693 1.53735 8.32649 1.79458 7.03328C2.05182 5.74008 2.68676 4.55219 3.61911 3.61984C4.55146 2.68749 5.73934 2.05255 7.03255 1.79532C8.32576 1.53808 9.6662 1.6701 10.8844 2.17469C12.1025 2.67927 13.1437 3.53375 13.8763 4.63008C14.6088 5.72641 14.9998 7.01534 14.9998 8.33388C14.9978 10.1014 14.2948 11.7959 13.045 13.0457C11.7952 14.2955 10.1007 14.9986 8.33315 15.0006Z" fill="#596381"></path>
    </g>
    <defs>
      <clipPath id="clip0_80_144">
        <rect width="20" height="20" fill="white"></rect>
      </clipPath>
    </defs>
  </symbol>
  <symbol fill="none" xmlns="http://www.w3.org/2000/svg" viewBox="0 0 16 16" id="pen">
    <path d="M15.2933 0.705854C14.8401 0.253319 14.2258 -0.000854492 13.5853 -0.000854492C12.9449 -0.000854492 12.3306 0.253319 11.8773 0.705854L0 12.5832V15.9992H3.416L15.2933 4.12185C15.7457 3.66854 15.9998 3.05427 15.9998 2.41385C15.9998 1.77343 15.7457 1.15917 15.2933 0.705854V0.705854ZM2.86667 14.6659H1.33333V13.1325L10.2067 4.26585L11.74 5.79919L2.86667 14.6659ZM14.3507 3.17919L12.6793 4.85052L11.1493 3.31719L12.82 1.64852C13.0233 1.44519 13.2991 1.33096 13.5867 1.33096C13.8742 1.33096 14.15 1.44519 14.3533 1.64852C14.5567 1.85185 14.6709 2.12763 14.6709 2.41519C14.6709 2.70274 14.5567 2.97852 14.3533 3.18185L14.3507 3.17919Z" fill="#6172F3"></path>
  </symbol>
  <symbol fill="none" xmlns="http://www.w3.org/2000/svg" viewBox="0 0 24 24" id="sun">
    <g clip-path="url(#clip0_17_73)">
      <path d="M24 13V11H18.928C18.8483 10.4439 18.7012 9.89957 18.49 9.379L22.882 6.822L21.876 5.094L17.482 7.652C17.146 7.2297 16.7629 6.84722 16.34 6.512L18.89 2.127L17.162 1.121L14.612 5.506C14.0942 5.29672 13.5529 5.15099 13 5.072V0H11V5.072C10.4514 5.14998 9.91424 5.29368 9.4 5.5L6.854 1.121L5.126 2.127L7.671 6.5C7.24584 6.83659 6.86096 7.22114 6.524 7.646L2.14 5.094L1.134 6.822L5.513 9.371C5.2999 9.89391 5.15179 10.441 5.072 11H0V13H5.072C5.15185 13.5564 5.29893 14.101 5.51 14.622L1.141 17.165L2.147 18.894L6.519 16.348C6.85142 16.7668 7.23054 17.1462 7.649 17.479L5.1 21.865L6.829 22.871L9.377 18.489C9.89812 18.7008 10.4432 18.8483 11 18.928V24H13V18.928C13.5622 18.8475 14.1123 18.698 14.638 18.483L17.19 22.871L18.918 21.865L16.362 17.47C16.7784 17.1376 17.1558 16.7592 17.487 16.342L21.87 18.894L22.87 17.165L18.488 14.614C18.6993 14.0957 18.8471 13.5538 18.928 13H24ZM17 12C16.79 18.608 7.209 18.606 7 12C7.21 5.392 16.791 5.394 17 12Z" fill="white"></path>
    </g>
    <defs>
      <clipPath id="clip0_17_73">
        <rect width="24" height="24" fill="white"></rect>
      </clipPath>
    </defs>
  </symbol>
  <symbol fill="none" xmlns="http://www.w3.org/2000/svg" viewBox="0 0 20 20" id="upload">
    <g clip-path="url(#clip0_155_1763)">
      <path d="M18.3333 13.333V17.4997C18.3333 17.7207 18.2455 17.9326 18.0893 18.0889C17.933 18.2452 17.721 18.333 17.5 18.333H2.5C2.27899 18.333 2.06702 18.2452 1.91074 18.0889C1.75446 17.9326 1.66667 17.7207 1.66667 17.4997V13.333H0V17.4997C0 18.1627 0.263392 18.7986 0.732233 19.2674C1.20107 19.7363 1.83696 19.9997 2.5 19.9997H17.5C18.163 19.9997 18.7989 19.7363 19.2678 19.2674C19.7366 18.7986 20 18.1627 20 17.4997V13.333H18.3333Z" fill="#6172F3"></path>
      <path d="M9.97264 9.47766e-06C9.64447 -0.000895192 9.31934 0.0629736 9.0159 0.187955C8.71245 0.312937 8.43665 0.496575 8.20431 0.728343L4.93848 3.99418L6.11681 5.17251L9.14514 2.14501L9.16681 15.8333H10.8335L10.8118 2.15668L13.8276 5.17251L15.006 3.99418L11.7401 0.728343C11.508 0.4966 11.2323 0.312972 10.929 0.187988C10.6257 0.063004 10.3007 -0.000876539 9.97264 9.47766e-06Z" fill="#6172F3"></path>
    </g>
    <defs>
      <clipPath id="clip0_155_1763">
        <rect width="20" height="20" fill="white"></rect>
      </clipPath>
    </defs>
  </symbol>
  <symbol fill="none" xmlns="http://www.w3.org/2000/svg" viewBox="0 0 24 24" id="user">
    <g clip-path="url(#clip0_167_1960)">
      <path d="M21 24.0006H19V18.9576C18.9992 18.1736 18.6874 17.4219 18.133 16.8676C17.5787 16.3132 16.827 16.0014 16.043 16.0006H7.957C7.173 16.0014 6.42134 16.3132 5.86696 16.8676C5.31259 17.4219 5.00079 18.1736 5 18.9576V24.0006H3V18.9576C3.00159 17.6434 3.52435 16.3835 4.45363 15.4542C5.3829 14.525 6.64281 14.0022 7.957 14.0006H16.043C17.3572 14.0022 18.6171 14.525 19.5464 15.4542C20.4756 16.3835 20.9984 17.6434 21 18.9576V24.0006Z" fill="var(--svg-color)"></path>
      <path d="M11.9999 11.9999C10.8133 11.9999 9.65322 11.648 8.66652 10.9888C7.67983 10.3295 6.91079 9.3924 6.45666 8.29604C6.00254 7.19969 5.88372 5.99329 6.11523 4.8294C6.34674 3.66551 6.91819 2.59642 7.7573 1.7573C8.59642 0.918186 9.66551 0.346741 10.8294 0.11523C11.9933 -0.116281 13.1997 0.00253868 14.296 0.456664C15.3924 0.91079 16.3295 1.67983 16.9888 2.66652C17.648 3.65321 17.9999 4.81325 17.9999 5.99994C17.9984 7.59075 17.3657 9.11595 16.2408 10.2408C15.116 11.3657 13.5908 11.9984 11.9999 11.9999ZM11.9999 1.99994C11.2088 1.99994 10.4355 2.23454 9.77766 2.67406C9.11987 3.11359 8.60717 3.7383 8.30442 4.46921C8.00167 5.20011 7.92246 6.00438 8.0768 6.7803C8.23114 7.55623 8.6121 8.26896 9.17151 8.82837C9.73093 9.38778 10.4437 9.76874 11.2196 9.92308C11.9955 10.0774 12.7998 9.99821 13.5307 9.69546C14.2616 9.39271 14.8863 8.88002 15.3258 8.22222C15.7653 7.56443 15.9999 6.79107 15.9999 5.99994C15.9999 4.93908 15.5785 3.92166 14.8284 3.17151C14.0782 2.42137 13.0608 1.99994 11.9999 1.99994Z" fill="var(--svg-color)"></path>
    </g>
    <defs>
      <clipPath id="clip0_167_1960">
        <rect width="24" height="24" fill="white"></rect>
      </clipPath>
    </defs>
  </symbol>
  <symbol fill="none" xmlns="http://www.w3.org/2000/svg" viewBox="0 0 16 16" id="trash">
    <g clip-path="url(#clip0_84_469)">
      <path d="M14.6668 2.66667H11.3335V1.33333C11.3335 0.979711 11.193 0.640573 10.943 0.390524C10.6929 0.140476 10.3538 0 10.0002 0L6.00016 0C5.64654 0 5.3074 0.140476 5.05735 0.390524C4.80731 0.640573 4.66683 0.979711 4.66683 1.33333V2.66667H1.3335V4H2.66683V14C2.66683 14.5304 2.87754 15.0391 3.25262 15.4142C3.62769 15.7893 4.1364 16 4.66683 16H11.3335C11.8639 16 12.3726 15.7893 12.7477 15.4142C13.1228 15.0391 13.3335 14.5304 13.3335 14V4H14.6668V2.66667ZM6.00016 1.33333H10.0002V2.66667H6.00016V1.33333ZM12.0002 14C12.0002 14.1768 11.9299 14.3464 11.8049 14.4714C11.6799 14.5964 11.5103 14.6667 11.3335 14.6667H4.66683C4.49002 14.6667 4.32045 14.5964 4.19543 14.4714C4.0704 14.3464 4.00016 14.1768 4.00016 14V4H12.0002V14Z" fill="var(--svg-color)"></path>
      <path d="M7.33333 6.66626H6V11.9996H7.33333V6.66626Z" fill="var(--svg-color)"></path>
      <path d="M10.0003 6.66626H8.66699V11.9996H10.0003V6.66626Z" fill="var(--svg-color)"></path>
    </g>
    <defs>
      <clipPath id="clip0_84_469">
        <rect width="16" height="16" fill="white"></rect>
      </clipPath>
    </defs>
  </symbol>
  <symbol xmlns="http://www.w3.org/2000/svg"  fill="var(--svg-color)" viewBox="0 0 640 512" id="user-role">
    <path d="M224 256A128 128 0 1 0 224 0a128 128 0 1 0 0 256zm-45.7 48C79.8 304 0 383.8 0 482.3C0 498.7 13.3 512 29.7 512l388.6 0c10 0 18.8-4.9 24.2-12.5l-99.2-99.2c-14.9-14.9-23.3-35.1-23.3-56.1l0-33c-15.9-4.7-32.8-7.2-50.3-7.2l-91.4 0zM384 224c-17.7 0-32 14.3-32 32l0 82.7c0 17 6.7 33.3 18.7 45.3L478.1 491.3c18.7 18.7 49.1 18.7 67.9 0l73.4-73.4c18.7-18.7 18.7-49.1 0-67.9L512 242.7c-12-12-28.3-18.7-45.3-18.7L384 224zm24 80a24 24 0 1 1 48 0 24 24 0 1 1 -48 0z">
    </path>
  </symbol>
  <symbol xmlns="http://www.w3.org/2000/svg" fill="var(--svg-color)" viewBox="0 0 640 512" id="shop">
    <path d="M36.8 192l566.3 0c20.3 0 36.8-16.5 36.8-36.8c0-7.3-2.2-14.4-6.2-20.4L558.2 21.4C549.3 8 534.4 0 518.3 0L121.7 0c-16 0-31 8-39.9 21.4L6.2 134.7c-4 6.1-6.2 13.2-6.2 20.4C0 175.5 16.5 192 36.8 192zM64 224l0 160 0 80c0 26.5 21.5 48 48 48l224 0c26.5 0 48-21.5 48-48l0-80 0-160-64 0 0 160-192 0 0-160-64 0zm448 0l0 256c0 17.7 14.3 32 32 32s32-14.3 32-32l0-256-64 0z"></path>
  </symbol>
  <symbol fill="none" xmlns="http://www.w3.org/2000/svg" viewBox="0 0 24 24" id="moon">
    <g clip-path="url(#clip0_17_69)">
      <path d="M13.9999 24.0003C10.8184 23.9968 7.76814 22.7315 5.51845 20.4818C3.26876 18.2321 2.00337 15.1818 1.99993 12.0003C1.84693 3.04429 12.0309 -2.98471 19.7909 1.50929L21.3439 2.37129L19.8009 3.25129C13.1009 6.93929 13.5909 17.1213 20.6009 20.1573L22.2219 20.8883L20.7549 21.8943C18.7683 23.2637 16.4128 23.9981 13.9999 24.0003ZM13.9999 2.00029C11.3487 2.0032 8.80682 3.0577 6.93208 4.93244C5.05735 6.80717 4.00285 9.34902 3.99993 12.0003C3.84493 19.1173 11.7629 24.2003 18.1549 21.0823C16.6585 20.078 15.4179 18.7373 14.5326 17.1675C13.6473 15.5977 13.1419 13.8424 13.0568 12.0422C12.9716 10.242 13.3091 8.44686 14.0423 6.80051C14.7755 5.15416 15.8839 3.70234 17.2789 2.56129C16.2262 2.18773 15.117 1.99797 13.9999 2.00029Z" fill="#374957"></path>
    </g>
    <defs>
      <clipPath id="clip0_17_69">
        <rect width="24" height="24" fill="white"></rect>
      </clipPath>
    </defs>
  </symbol>
  <symbol fill="none" xmlns="http://www.w3.org/2000/svg" viewBox="0 0 20 21" id="telegram">
    <path d="M1.20341 5.77095C0.92437 5.85068 0.670988 6.00188 0.468331 6.20961C0.265675 6.41733 0.120768 6.67436 0.04795 6.95528C-0.0248682 7.2362 -0.0230741 7.53126 0.0531547 7.81127C0.129384 8.09128 0.277405 8.34654 0.482573 8.55178L3.32591 11.3918V16.8801H8.82007L11.6826 19.7384C11.8362 19.8934 12.019 20.0165 12.2203 20.1005C12.4217 20.1846 12.6377 20.2281 12.8559 20.2284C12.9993 20.2282 13.1421 20.2097 13.2809 20.1734C13.5617 20.1027 13.8189 19.9593 14.0267 19.7575C14.2344 19.5558 14.3853 19.3029 14.4642 19.0243L19.9926 0.230957L1.20341 5.77095ZM1.66674 7.37345L15.8567 3.19012L4.99424 14.0351V10.7018L1.66674 7.37345ZM12.8667 18.5601L9.51091 15.2134H6.17757L17.0384 4.36179L12.8667 18.5601Z" fill="var(--svg-color)"></path>
  </symbol>
  <symbol fill="none" xmlns="http://www.w3.org/2000/svg" viewBox="0 0 20 20" id="add-user">
    <g clip-path="url(#clip0_106_1571)">
      <path d="M7.5 10C10.2614 10 12.5 7.76142 12.5 5C12.5 2.23858 10.2614 0 7.5 0C4.73858 0 2.5 2.23858 2.5 5C2.5 7.76142 4.73858 10 7.5 10Z" fill="#6172F3"></path>
      <path d="M10.8692 11.667H4.13083C3.03567 11.6683 1.98575 12.104 1.21135 12.8783C0.43696 13.6527 0.00132319 14.7027 0 15.7978L0 20.0003H15V15.7978C14.9987 14.7027 14.563 13.6527 13.7886 12.8783C13.0143 12.104 11.9643 11.6683 10.8692 11.667Z" fill="#6172F3"></path>
      <path d="M17.4997 8.333V5.83301H15.833V8.333H13.333V9.99967H15.833V12.4997H17.4997V9.99967H19.9997V8.333H17.4997Z" fill="#6172F3"></path>
    </g>
    <defs>
      <clipPath id="clip0_106_1571">
        <rect width="20" height="20" fill="white"></rect>
      </clipPath>
    </defs>
  </symbol>
  <symbol fill="none" xmlns="http://www.w3.org/2000/svg" viewBox="0 0 13 12" id="back-arrow">
    <path d="M12.9998 4.99997H2.99982L6.29282 1.70697L4.87882 0.292969L0.585817 4.58597C0.210875 4.96102 0.000244141 5.46964 0.000244141 5.99997C0.000244141 6.5303 0.210875 7.03891 0.585817 7.41397L4.87882 11.707L6.29282 10.293L2.99982 6.99997H12.9998V4.99997Z" fill="#596381"></path>
  </symbol>
  <symbol fill="none" xmlns="http://www.w3.org/2000/svg" viewBox="0 0 25 24" id="pagination_arrow">
    <path d="M4.5 12L20.5 12M20.5 12L14.5 18M20.5 12L14.5 6" stroke="white" stroke-width="1.5" stroke-linecap="round" stroke-linejoin="round"></path>
  </symbol>
  <symbol fill="none" xmlns="http://www.w3.org/2000/svg" viewBox="0 0 40 40" id="file-add">
    <g clip-path="url(#clip0_187_1455)">
      <path d="M24.0228 0H8.33276C7.00668 0 5.73491 0.526784 4.79723 1.46447C3.85955 2.40215 3.33276 3.67392 3.33276 5V40H36.6661V12.6433L24.0228 0ZM24.9994 5.69L30.9761 11.6667H24.9994V5.69ZM6.6661 36.6667V5C6.6661 4.55797 6.84169 4.13405 7.15425 3.82149C7.46681 3.50893 7.89074 3.33333 8.33276 3.33333H21.6661V15H33.3328V36.6667H6.6661ZM21.6661 23.3333H26.6661V26.6667H21.6661V31.6667H18.3328V26.6667H13.3328V23.3333H18.3328V18.3333H21.6661V23.3333Z" fill="#D8DCFC"></path>
    </g>
    <defs>
      <clipPath id="clip0_187_1455">
        <rect width="40" height="40" fill="white"></rect>
      </clipPath>
    </defs>
  </symbol>
</svg>






